<svg width="202" height="155" viewBox="0 0 202 155" fill="none" xmlns="http://www.w3.org/2000/svg">
<path d="M156.847 113.284L149.5 125.129L100.495 94.7319L107.841 82.8864L156.847 113.284Z" fill="#5D7A7F"/>
<mask id="mask0_15_3024" style="mask-type:luminance" maskUnits="userSpaceOnUse" x="110" y="84" width="12" height="8">
<path d="M121.105 91.114L110.288 84.4047V84.4043L121.105 91.114Z" fill="white"/>
</mask>
<g mask="url(#mask0_15_3024)">
<path d="M121.105 91.114L110.288 84.4047V84.4043L121.105 91.114Z" fill="url(#paint0_radial_15_3024)"/>
</g>
<path d="M129.997 96.6295L103.193 95.2854C104.833 93.2937 106.36 91.1698 107.756 88.9181C108.674 87.4382 109.518 85.9312 110.288 84.4047L121.105 91.114L129.997 96.6295Z" fill="#4C6468"/>
<mask id="mask1_15_3024" style="mask-type:luminance" maskUnits="userSpaceOnUse" x="5" y="5" width="107" height="99">
<path d="M58.7389 103.543C55.3994 103.543 52.0505 103.319 48.7037 102.882C39.045 101.618 28.7115 98.712 20.6291 93.086C18.3863 91.5249 16.2655 89.7917 14.3507 87.8563C3.05672 71.0885 1.89537 48.5454 13.2236 30.2806C23.2391 14.1318 40.5846 5.2448 58.3198 5.2448C67.843 5.2448 77.4802 7.80878 86.1511 13.1869C110.969 28.5817 118.637 61.2984 103.243 86.1187C102.226 87.7593 101.134 89.3228 99.9725 90.812C93.5676 95.3261 86.1303 98.5965 78.6848 100.747C72.1471 102.636 65.4629 103.543 58.7389 103.543ZM56.0393 10.5825C50.736 10.5825 45.3967 11.7653 40.5836 13.8676C34.2814 16.6197 28.1493 21.8532 26.3598 28.7219C26.1575 29.4982 26.8075 30.3536 27.5277 30.3536C27.7742 30.3536 28.0293 30.2532 28.261 30.015C32.5185 25.638 37.0211 21.7967 42.7037 19.4051C47.0791 17.5636 51.6266 17.0923 56.2284 17.0923C58.4575 17.0923 60.6989 17.2027 62.9407 17.3216C62.9946 17.3244 63.0482 17.3257 63.1011 17.3257C66.2256 17.3261 67.4793 12.4093 64.1712 11.5713C61.5228 10.8999 58.7856 10.5825 56.0393 10.5825Z" fill="white"/>
</mask>
<g mask="url(#mask1_15_3024)">
<path d="M58.7389 103.543C55.3994 103.543 52.0505 103.319 48.7037 102.882C39.045 101.618 28.7115 98.712 20.6291 93.086C18.3863 91.5249 16.2655 89.7917 14.3507 87.8563C3.05672 71.0885 1.89537 48.5454 13.2236 30.2806C23.2391 14.1318 40.5846 5.2448 58.3198 5.2448C67.843 5.2448 77.4802 7.80878 86.1511 13.1869C110.969 28.5817 118.637 61.2984 103.243 86.1187C102.226 87.7593 101.134 89.3228 99.9725 90.812C93.5676 95.3261 86.1303 98.5965 78.6848 100.747C72.1471 102.636 65.4629 103.543 58.7389 103.543ZM56.0393 10.5825C50.736 10.5825 45.3967 11.7653 40.5836 13.8676C34.2814 16.6197 28.1493 21.8532 26.3598 28.7219C26.1575 29.4982 26.8075 30.3536 27.5277 30.3536C27.7742 30.3536 28.0293 30.2532 28.261 30.015C32.5185 25.638 37.0211 21.7967 42.7037 19.4051C47.0791 17.5636 51.6266 17.0923 56.2284 17.0923C58.4575 17.0923 60.6989 17.2027 62.9407 17.3216C62.9946 17.3244 63.0482 17.3257 63.1011 17.3257C66.2256 17.3261 67.4793 12.4093 64.1712 11.5713C61.5228 10.8999 58.7856 10.5825 56.0393 10.5825Z" fill="url(#paint1_radial_15_3024)"/>
</g>
<mask id="mask2_15_3024" style="mask-type:luminance" maskUnits="userSpaceOnUse" x="14" y="87" width="86" height="25">
<path d="M58.147 111.154C48.6238 111.154 38.9866 108.591 30.3158 103.212C23.7615 99.1466 18.4039 93.8736 14.3508 87.8563C16.2655 89.7917 18.3863 91.5249 20.6291 93.0861C28.7115 98.712 39.0451 101.618 48.7037 102.882C52.0505 103.319 55.3994 103.543 58.7389 103.543C65.4629 103.543 72.1471 102.636 78.6848 100.747C86.1303 98.5965 93.5676 95.3261 99.9725 90.812C89.7001 103.979 74.0802 111.155 58.147 111.154Z" fill="white"/>
</mask>
<g mask="url(#mask2_15_3024)">
<path d="M58.147 111.154C48.6238 111.154 38.9866 108.591 30.3158 103.212C23.7615 99.1466 18.4039 93.8736 14.3508 87.8563C16.2655 89.7917 18.3863 91.5249 20.6291 93.0861C28.7115 98.712 39.0451 101.618 48.7037 102.882C52.0505 103.319 55.3994 103.543 58.7389 103.543C65.4629 103.543 72.1471 102.636 78.6848 100.747C86.1303 98.5965 93.5676 95.3261 99.9725 90.812C89.7001 103.979 74.0802 111.155 58.147 111.154Z" fill="url(#paint2_radial_15_3024)"/>
</g>
<path d="M200.859 146.434L197.692 151.54C195.6 154.914 191.169 155.952 187.796 153.86L137.559 122.699C137.004 122.355 136.833 121.626 137.177 121.071L146.675 105.758C147.019 105.203 147.748 105.032 148.302 105.376L198.539 136.537C201.913 138.63 202.951 143.061 200.859 146.434Z" fill="#153E49"/>
<path d="M157.196 110.373L146.452 127.696L144.37 126.404L155.114 109.081L157.196 110.373Z" fill="#F7D77F"/>
<path d="M162.126 113.579L151.382 130.902L149.3 129.61L160.043 112.287L162.126 113.579Z" fill="#F7D77F"/>
<path d="M13.2236 30.2806C-2.17021 55.1005 5.49732 87.8176 30.3158 103.212C55.1345 118.607 87.8494 110.939 103.243 86.1186C118.637 61.2984 110.97 28.5817 86.1511 13.1869C61.3323 -2.20755 28.6171 5.46071 13.2236 30.2806ZM107.757 88.9181C90.8193 116.227 54.8237 124.664 27.5166 107.726C0.209543 90.7877 -8.22727 54.7896 8.70996 27.4808C25.6475 0.172035 61.6431 -8.26497 88.9506 8.67347C116.258 25.6116 124.694 61.6093 107.757 88.9181Z" fill="#153E49"/>
<mask id="mask3_15_3024" style="mask-type:luminance" maskUnits="userSpaceOnUse" x="26" y="10" width="41" height="21">
<path d="M27.5277 30.3536C26.8075 30.3536 26.1575 29.4982 26.3598 28.7219C28.1493 21.8532 34.2814 16.6197 40.5836 13.8676C45.3967 11.7653 50.736 10.5825 56.0393 10.5825C58.7855 10.5825 61.5228 10.8999 64.1712 11.5713C67.4792 12.4093 66.2256 17.3261 63.1011 17.3258C63.0482 17.3258 62.9946 17.3244 62.9407 17.3216C60.6989 17.2027 58.4574 17.0924 56.2284 17.0924C51.6266 17.0924 47.0791 17.5636 42.7037 19.4051C37.0211 21.7967 32.5185 25.638 28.261 30.015C28.0293 30.2532 27.7742 30.3536 27.5277 30.3536Z" fill="white"/>
</mask>
<g mask="url(#mask3_15_3024)">
<path d="M27.5277 30.3536C26.8075 30.3536 26.1575 29.4982 26.3598 28.7219C28.1493 21.8532 34.2814 16.6197 40.5836 13.8676C45.3967 11.7653 50.736 10.5825 56.0393 10.5825C58.7855 10.5825 61.5228 10.8999 64.1712 11.5713C67.4792 12.4093 66.2256 17.3261 63.1011 17.3258C63.0482 17.3258 62.9946 17.3244 62.9407 17.3216C60.6989 17.2027 58.4574 17.0924 56.2284 17.0924C51.6266 17.0924 47.0791 17.5636 42.7037 19.4051C37.0211 21.7967 32.5185 25.638 28.261 30.015C28.0293 30.2532 27.7742 30.3536 27.5277 30.3536Z" fill="url(#paint3_radial_15_3024)"/>
</g>
<path d="M57.9378 5.39597C28.8664 5.39597 5.21485 29.0485 5.21485 58.1213C5.21485 87.1948 28.8664 110.847 57.9378 110.847C87.0092 110.847 110.66 87.1948 110.66 58.1213C110.66 29.0485 87.0092 5.39597 57.9378 5.39597ZM57.9378 111.869C28.3028 111.869 4.19318 87.7579 4.19318 58.1213C4.19318 28.4851 28.3028 4.37429 57.9378 4.37429C87.5728 4.37429 111.682 28.4851 111.682 58.1213C111.682 87.7579 87.5728 111.869 57.9378 111.869Z" fill="#BA656D"/>
<defs>
<radialGradient id="paint0_radial_15_3024" cx="0" cy="0" r="1" gradientUnits="userSpaceOnUse" gradientTransform="translate(35.5555 70.7242) scale(113.652 112.662)">
<stop stop-color="#8EAFA6"/>
<stop offset="1" stop-color="#75A197"/>
</radialGradient>
<radialGradient id="paint1_radial_15_3024" cx="0" cy="0" r="1" gradientUnits="userSpaceOnUse" gradientTransform="translate(35.5555 70.7242) scale(113.652 112.662)">
<stop stop-color="#D0E4DF"/>
<stop offset="1" stop-color="#C1DCD6"/>
</radialGradient>
<radialGradient id="paint2_radial_15_3024" cx="0" cy="0" r="1" gradientUnits="userSpaceOnUse" gradientTransform="translate(35.5555 70.7242) scale(113.652 112.662)">
<stop stop-color="#AABBB7"/>
<stop offset="1" stop-color="#9EB4AF"/>
</radialGradient>
<radialGradient id="paint3_radial_15_3024" cx="0" cy="0" r="1" gradientUnits="userSpaceOnUse" gradientTransform="translate(35.5555 70.7242) scale(113.652 112.662)">
<stop stop-color="#EDF5F3"/>
<stop offset="1" stop-color="#E7F1EF"/>
</radialGradient>
</defs>
</svg>
